<?xml version="1.0" encoding="UTF-8"?>
<svg width="144px" height="144px" viewBox="0 0 144 144" version="1.1" xmlns="http://www.w3.org/2000/svg" xmlns:xlink="http://www.w3.org/1999/xlink">
    <!-- Generator: Sketch 48.2 (47327) - http://www.bohemiancoding.com/sketch -->
    <title>Userpic</title>
    <desc>Created with Sketch.</desc>
    <defs>
        <linearGradient x1="50%" y1="0%" x2="50%" y2="90.5731824%" id="linearGradient-1">
            <stop stop-color="#BBBBBD" offset="0%"></stop>
            <stop stop-color="#66656A" offset="100%"></stop>
        </linearGradient>
    </defs>
    <g id="Screens" stroke="none" stroke-width="1" fill="none" fill-rule="evenodd">
        <g id="Graphics-/-Custom-Icons-/-Misc-/-Userpic" fill="url(#linearGradient-1)">
            <path d="M144,72 C144,111.763636 111.763636,144 72,144 C32.2363636,144 0,111.763636 0,72 C0,32.2363636 32.2363636,0 72,0 C111.763636,0 144,32.2363636 144,72 Z M49.8850957,112.606626 C48.2330164,113.050184 46.597262,113.544435 44.9713026,114.057696 C40.432982,115.496093 35.9501661,117.102409 31.5,118.787932 C43.05476,128.837703 58.2728262,135 75.0123726,135 C91.0107687,135 105.647669,129.398488 117,120.131281 C111.103448,117.469929 102.781017,114.783231 102.781017,114.783231 C92.8848665,112.936126 89.890881,110.731006 89.890881,110.731006 C86.7140566,109.324292 87.2593081,96.0238696 87.2593081,96.0238696 C92.1600412,95.4060558 91.889048,80.7844624 91.889048,80.7844624 C95.3368656,82.8977024 95.6111238,78.4937989 95.6111238,78.4937989 C95.7906977,76.8209492 96.6983618,73.7382168 96.6983618,73.7382168 C100.058025,63.4318152 95.1540268,65.8967338 95.1540268,65.8967338 C97.8770191,55.8564674 96.6983618,47.2260838 96.6983618,47.2260838 C96.1106656,42.9299017 94.0635239,39.3560864 90.3708329,36.859485 C89.120346,36.0135553 87.7621148,35.3197029 86.341849,34.7842643 C84.4089816,34.0555608 82.4075495,33.070227 80.4257074,32.5411249 C78.8095429,32.1070711 77.1476687,31.853609 75.4792645,31.6951953 C73.6410815,31.5241084 71.7669836,31.4417332 69.9222706,31.5462863 C68.1950968,31.5462863 67.3788521,32.6044904 67.3788521,32.6044904 C67.1176538,32.9371594 64.8876733,33.3426987 64.3750716,33.5771512 C63.4608775,33.9921953 62.5695383,34.4579319 61.697789,34.9521829 C59.4841333,36.216325 57.5153511,37.8479871 55.4551495,39.3244037 C53.845515,40.4776561 51.8016382,41.2507154 50.6523657,42.910892 C49.6500172,44.3619624 49.0982358,46.0728314 48.7847978,47.7773638 C48.4289151,49.7290218 48.2003666,52.0355267 48.5921641,54.0061943 C49.0427311,56.2968578 49.679402,66.5145476 49.679402,66.5145476 C46.0487456,65.8111904 48.0469126,71.0071629 48.0469126,71.0071629 C48.7717379,71.9766553 49.7708214,77.2613396 49.7708214,77.2613396 C50.6784855,84.925399 54.4919808,81.8426666 54.4919808,81.8426666 C53.8553099,95.4060558 58.5764692,96.109413 58.5764692,96.109413 C59.2098751,104.036439 57.6688051,108.617766 57.6688051,108.617766 C56.5162676,111.55159 52.5689082,111.887427 49.8850957,112.606626 Z" id="Userpic-Icon"></path>
        </g>
    </g>
</svg>